<?xml version="1.0" standalone="no"?>
<!DOCTYPE svg PUBLIC "-//W3C//DTD SVG 20010904//EN"
 "http://www.w3.org/TR/2001/REC-SVG-20010904/DTD/svg10.dtd">
<svg version="1.0" xmlns="http://www.w3.org/2000/svg"
 width="512.000000pt" height="512.000000pt" viewBox="0 0 512.000000 512.000000"
 preserveAspectRatio="xMidYMid meet">

<g transform="translate(0.000000,512.000000) scale(0.100000,-0.100000)"
fill="#000000" stroke="none">
<path d="M1315 5105 c-83 -32 -146 -121 -148 -209 -2 -110 -65 -40 1126 -1233
l1102 -1103 -1102 -1102 c-1191 -1194 -1128 -1124 -1126 -1234 4 -164 187
-273 335 -199 51 26 2411 2392 2433 2439 22 50 22 142 0 192 -22 48 -2382
2413 -2434 2439 -47 24 -137 28 -186 10z"/>
</g>
</svg>
